<svg width="32" height="32" viewBox="0 0 32 32" fill="none" xmlns="http://www.w3.org/2000/svg">
<g id="Icons / arrow">
<path id="icon" fill-rule="evenodd" clip-rule="evenodd" d="M 12 30.3 H 20 C 27.2 30.3 30.3 27.2 30.3 20 V 12 C 30.3 4.8 27.2 1.7 20 1.7 H 12 C 4.8 1.7 1.7 4.8 1.7 12 V 20 C 1.7 27.2 4.8 30.3 12 30.3 Z M 3.7 12 C 3.7 5.9 5.9 3.7 12 3.7 H 20 C 26.1 3.7 28.3 5.9 28.3 12 V 20 C 28.3 26.1 26.1 28.3 20 28.3 H 12 C 5.9 28.3 3.7 26.1 3.7 20 V 12 Z M 15.3 19.6 C 15.5 19.8 15.7 19.9 16 19.9 C 16.3 19.9 16.5 19.8 16.7 19.6 L 21.4 14.9 C 21.8 14.5 21.8 13.9 21.4 13.5 C 21 13.1 20.4 13.1 20 13.5 L 16 17.5 L 12 13.5 C 11.6 13.1 11 13.1 10.6 13.5 C 10.2 13.9 10.2 14.5 10.6 14.9 L 15.3 19.6 Z" fill="#1b1f23"/>
</g>
</svg>
