<svg width="32" height="32" viewBox="0 0 32 32" fill="none" xmlns="http://www.w3.org/2000/svg">
<rect width="32" height="32" fill="rgba(0, 0, 0, 0)"/>
<g id="Icons / basket">
<path id="Vector" d="M 29.5 8.7 C 29.3 8.5 29.1 8.3 28.8 8.2 C 28.6 8.1 28.3 8 28 8 H 22 C 22 6.4 21.4 4.9 20.2 3.8 C 19.1 2.6 17.6 2 16 2 C 14.4 2 12.9 2.6 11.8 3.8 C 10.6 4.9 10 6.4 10 8 H 4 C 3.7 8 3.4 8.1 3.2 8.2 C 2.9 8.3 2.7 8.5 2.5 8.7 C 2.3 8.9 2.2 9.1 2.1 9.4 C 2 9.7 2 10 2 10.2 L 3.8 25.2 C 3.9 25.7 4.1 26.2 4.5 26.5 C 4.8 26.8 5.3 27 5.8 27 H 26.2 C 26.7 27 27.2 26.8 27.5 26.5 C 27.9 26.2 28.1 25.7 28.2 25.2 L 30 10.2 C 30 10 30 9.7 29.9 9.4 C 29.8 9.1 29.7 8.9 29.5 8.7 Z M 16 4 C 17.1 4 18.1 4.4 18.8 5.2 C 19.6 5.9 20 6.9 20 8 H 12 C 12 6.9 12.4 5.9 13.2 5.2 C 13.9 4.4 14.9 4 16 4 Z M 26.2 25 C 26.2 25 26.2 25 26.2 25 H 5.8 L 4 10 H 10 V 13 C 10 13.3 10.1 13.5 10.3 13.7 C 10.5 13.9 10.7 14 11 14 C 11.3 14 11.5 13.9 11.7 13.7 C 11.9 13.5 12 13.3 12 13 V 10 H 20 V 13 C 20 13.3 20.1 13.5 20.3 13.7 C 20.5 13.9 20.7 14 21 14 C 21.3 14 21.5 13.9 21.7 13.7 C 21.9 13.5 22 13.3 22 13 V 10 H 28 L 26.2 25 Z" fill="#333333"/>
</g>
</svg>
