<svg width="32" height="32" viewBox="0 0 32 32" fill="none" xmlns="http://www.w3.org/2000/svg">
<g id="Icons / close">
<path id="Vector" d="M 25.7 24.3 C 25.8 24.4 25.9 24.5 25.9 24.6 C 26 24.7 26 24.9 26 25 C 26 25.1 26 25.3 25.9 25.4 C 25.9 25.5 25.8 25.6 25.7 25.7 C 25.6 25.8 25.5 25.9 25.4 25.9 C 25.3 26 25.1 26 25 26 C 24.9 26 24.7 26 24.6 25.9 C 24.5 25.9 24.4 25.8 24.3 25.7 L 16 17.4 L 7.7 25.7 C 7.5 25.9 7.3 26 7 26 C 6.7 26 6.5 25.9 6.3 25.7 C 6.1 25.5 6 25.3 6 25 C 6 24.7 6.1 24.5 6.3 24.3 L 14.6 16 L 6.3 7.7 C 6.1 7.5 6 7.3 6 7 C 6 6.7 6.1 6.5 6.3 6.3 C 6.5 6.1 6.7 6 7 6 C 7.3 6 7.5 6.1 7.7 6.3 L 16 14.6 L 24.3 6.3 C 24.5 6.1 24.7 6 25 6 C 25.3 6 25.5 6.1 25.7 6.3 C 25.9 6.5 26 6.7 26 7 C 26 7.3 25.9 7.5 25.7 7.7 L 17.4 16 L 25.7 24.3 Z" fill="#333333"/>
</g>
</svg>
