<svg width="32" height="32" viewBox="0 0 32 32" fill="none" xmlns="http://www.w3.org/2000/svg">
<g id="Icons / photo">
<path id="Vector" d="M 27 5 H 5 C 4.5 5 4 5.2 3.6 5.6 C 3.2 6 3 6.5 3 7 V 25 C 3 25.5 3.2 26 3.6 26.4 C 4 26.8 4.5 27 5 27 H 27 C 27.5 27 28 26.8 28.4 26.4 C 28.8 26 29 25.5 29 25 V 7 C 29 6.5 28.8 6 28.4 5.6 C 28 5.2 27.5 5 27 5 Z M 27 7 V 19.8 L 23.7 16.6 C 23.6 16.4 23.3 16.3 23.1 16.2 C 22.8 16.1 22.6 16 22.3 16 C 22.1 16 21.8 16.1 21.6 16.2 C 21.3 16.3 21.1 16.4 20.9 16.6 L 18.4 19.1 L 12.9 13.6 C 12.5 13.2 12 13 11.5 13 C 11 13 10.5 13.2 10.1 13.6 L 5 18.7 V 7 H 27 Z M 5 21.5 L 11.5 15 L 21.5 25 H 5 V 21.5 Z M 27 25 H 24.3 L 19.8 20.5 L 22.3 18 L 27 22.7 V 25 Z M 18 12.5 C 18 12.2 18.1 11.9 18.3 11.7 C 18.4 11.4 18.7 11.2 18.9 11.1 C 19.2 11 19.5 11 19.8 11 C 20.1 11.1 20.4 11.2 20.6 11.4 C 20.8 11.6 20.9 11.9 21 12.2 C 21 12.5 21 12.8 20.9 13.1 C 20.8 13.3 20.6 13.6 20.3 13.7 C 20.1 13.9 19.8 14 19.5 14 C 19.1 14 18.7 13.8 18.4 13.6 C 18.2 13.3 18 12.9 18 12.5 Z" fill="#333333"/>
</g>
</svg>
