<svg width="32" height="32" viewBox="0 0 32 32" fill="none" xmlns="http://www.w3.org/2000/svg">
<g id="Icons / plus">
<path id="Vector" d="M 28 16 C 28 16.3 27.9 16.5 27.7 16.7 C 27.5 16.9 27.3 17 27 17 H 17 V 27 C 17 27.3 16.9 27.5 16.7 27.7 C 16.5 27.9 16.3 28 16 28 C 15.7 28 15.5 27.9 15.3 27.7 C 15.1 27.5 15 27.3 15 27 V 17 H 5 C 4.7 17 4.5 16.9 4.3 16.7 C 4.1 16.5 4 16.3 4 16 C 4 15.7 4.1 15.5 4.3 15.3 C 4.5 15.1 4.7 15 5 15 H 15 V 5 C 15 4.7 15.1 4.5 15.3 4.3 C 15.5 4.1 15.7 4 16 4 C 16.3 4 16.5 4.1 16.7 4.3 C 16.9 4.5 17 4.7 17 5 V 15 H 27 C 27.3 15 27.5 15.1 27.7 15.3 C 27.9 15.5 28 15.7 28 16 Z" fill="#333333"/>
</g>
</svg>
